<?xml version="1.0" encoding="iso-8859-1"?>
<!-- Generator: Adobe Illustrator 16.0.0, SVG Export Plug-In . SVG Version: 6.00 Build 0)  -->
<!DOCTYPE svg PUBLIC "-//W3C//DTD SVG 1.1//EN" "http://www.w3.org/Graphics/SVG/1.1/DTD/svg11.dtd">
<svg version="1.1" id="Layer_1" xmlns="http://www.w3.org/2000/svg" xmlns:xlink="http://www.w3.org/1999/xlink" x="0px" y="0px"
	 width="130.458px" height="42.049px" viewBox="0 0 130.458 42.049" style="enable-background:new 0 0 130.458 42.049;"
	 xml:space="preserve">
<polygon style="fill:#FFFFFF;" points="37.264,27.845 33.015,33.549 28.728,27.845 26.871,27.845 32.038,34.686 26.669,41.809 
	28.486,41.809 32.954,35.804 37.426,41.809 39.299,41.809 33.933,34.668 39.098,27.845 "/>
<polygon style="fill:#FFFFFF;" points="41.124,27.845 41.124,29.3 45.811,29.3 45.811,41.808 47.409,41.808 47.409,29.3 
	52.095,29.3 52.095,27.845 "/>
<g>
	<defs>
		<rect id="SVGID_1_" y="0" width="130.458" height="42.049"/>
	</defs>
	<clipPath id="SVGID_2_">
		<use xlink:href="#SVGID_1_"  style="overflow:visible;"/>
	</clipPath>
	<path style="clip-path:url(#SVGID_2_);fill:#FFFFFF;" d="M54.512,27.845h6.006c1.715,0,3.091,0.52,3.969,1.396
		c0.682,0.679,1.078,1.656,1.078,2.751v0.043c0,2.313-1.595,3.667-3.79,4.068l4.289,5.706h-1.936l-4.048-5.427h-0.041h-3.949v5.427
		h-1.578V27.845z M60.377,34.966c2.094,0,3.592-1.076,3.592-2.872v-0.041c0-1.715-1.318-2.753-3.57-2.753h-4.31v5.666H60.377z"/>
	<path style="clip-path:url(#SVGID_2_);fill:#FFFFFF;" d="M74.262,27.746h1.474l6.363,14.064h-1.695l-1.636-3.691h-7.6l-1.656,3.691
		h-1.615L74.262,27.746z M78.149,36.702l-3.171-7.121l-3.193,7.121H78.149z"/>
	<path style="clip-path:url(#SVGID_2_);fill:#FFFFFF;" d="M83.133,36.702v-0.04c0-2.912,2.274-5.387,5.285-5.387
		c1.956,0,3.172,0.819,4.131,1.837l-1.019,1.076c-0.816-0.857-1.736-1.555-3.132-1.555c-2.094,0-3.692,1.773-3.692,3.989v0.039
		c0,2.235,1.636,4.011,3.791,4.011c1.317,0,2.335-0.658,3.154-1.537l0.977,0.918c-1.038,1.158-2.274,1.997-4.21,1.997
		C85.407,42.05,83.133,39.595,83.133,36.702"/>
	<path style="clip-path:url(#SVGID_2_);fill:#FFFFFF;" d="M95.566,39.078v-6.226h-1.435v-1.357h1.435v-3.112h1.535v3.112h3.273
		v1.357h-3.273v6.024c0,1.257,0.699,1.715,1.735,1.715c0.521,0,0.955-0.099,1.498-0.36v1.317c-0.543,0.282-1.117,0.44-1.857,0.44
		C96.819,41.989,95.566,41.171,95.566,39.078"/>
	<path style="clip-path:url(#SVGID_2_);fill:#FFFFFF;" d="M102.374,27.545h1.757v0.456v1.24h-1.757V27.545z M102.475,31.494h1.535
		v1.646v8.671h-1.535V31.494z"/>
	<polygon style="clip-path:url(#SVGID_2_);fill:#FFFFFF;" points="105.964,31.494 107.661,31.494 111.133,40.054 114.622,31.494 
		116.277,31.494 111.79,41.889 110.432,41.889 	"/>
	<path style="clip-path:url(#SVGID_2_);fill:#FFFFFF;" d="M122.265,40.712c1.413,0,2.414-0.578,3.251-1.458l0.955,0.858
		c-1.038,1.158-2.293,1.936-4.249,1.936c-2.834,0-5.149-2.175-5.149-5.388c0-2.991,2.098-5.388,4.949-5.388
		c3.052,0,4.81,2.438,4.81,5.469c0,0.141,0,0.298-0.02,0.539h-8.183C118.851,39.455,120.447,40.712,122.265,40.712 M125.274,36.043
		c-0.182-1.875-1.257-3.472-3.292-3.472c-1.776,0-3.132,1.477-3.354,3.472H125.274z"/>
	<polygon style="clip-path:url(#SVGID_2_);fill:#FFFFFF;" points="127.648,31.588 127.12,31.588 127.12,31.317 128.471,31.317 
		128.471,31.588 127.944,31.588 127.944,32.981 127.648,32.981 	"/>
	<polygon style="clip-path:url(#SVGID_2_);fill:#FFFFFF;" points="128.822,31.318 129.133,31.318 129.639,32.106 130.147,31.318 
		130.458,31.318 130.458,32.981 130.165,32.981 130.165,31.789 129.639,32.575 129.632,32.575 129.111,31.792 129.111,32.981 
		128.822,32.981 	"/>
	<path style="clip-path:url(#SVGID_2_);fill:#FFFFFF;" d="M100.256,18.615c-1.838,1.612-4.247,2.585-6.88,2.585
		c-5.78,0-10.464-4.681-10.464-10.461c0-3.458,1.679-6.523,4.266-8.428c0.404-0.3-0.391-0.154-1.146,0.317
		c-3.119,1.941-5.201,5.404-5.201,9.351c0,6.078,4.929,11.008,11.005,11.008c2.88,0,5.494-1.104,7.454-2.911
		C100.103,19.327,100.651,18.269,100.256,18.615"/>
	<path style="clip-path:url(#SVGID_2_);fill:#FFFFFF;" d="M95.256,5.759c-5.966,0.081-6.707,6.073-3.572,7.213
		c-0.048-0.101-0.088-0.204-0.125-0.305c-0.622-1.816,0.595-4.056,2.851-4.056c1.804,0,3.566,1.552,2.893,3.964
		c-0.96,3.426-5.5,3.605-8.218,0.69c-0.175-0.186-0.2,0.022-0.164,0.243c0.49,2.788,3.202,5.186,6.336,5.186
		c3.57,0,6.466-2.897,6.466-6.465C101.722,8.656,98.826,5.713,95.256,5.759"/>
	<path style="clip-path:url(#SVGID_2_);fill:#FFFFFF;" d="M96.22,19.41c-0.398,0.066-0.813,0.099-1.232,0.099
		c-4.265,0-7.726-3.455-7.726-7.723c0-4.263,3.461-7.721,7.726-7.721c1.65,0,3.176,0.517,4.431,1.398
		c0.236,0.166-0.138-0.428-0.624-0.837c-1.542-1.317-3.544-2.112-5.729-2.112c-4.887,0-8.848,3.96-8.848,8.847
		c0,4.884,3.961,8.844,8.848,8.844c0.903,0,1.771-0.136,2.593-0.386C96.183,19.657,96.54,19.358,96.22,19.41"/>
	<path style="clip-path:url(#SVGID_2_);fill:#FFFFFF;" d="M104.234,9.112c0-2.015-0.486-2.504-2.303-2.561V5.848h5.185v3.367h0.055
		c0.43-1.007,1.958-3.684,4.806-3.684c2.621,0,3.482,1.842,3.482,4.058v9.642h-2.876v-7.456c0-2.273,0-4.288-1.931-4.288
		c-1.897,0-3.536,2.678-3.536,4.722v7.022h-2.882V9.112z"/>
	<path style="clip-path:url(#SVGID_2_);fill:#FFFFFF;" d="M125.72,8.179c-0.435-0.289-1.816-1.382-3.428-1.382
		c-0.92,0-2.014,0.346-2.014,1.584c0,2.733,6.303,2.792,6.303,7.194c0,2.821-2.333,3.972-5.183,3.972
		c-1.753,0-3.019-0.345-3.682-0.517v-2.246c0.836,0.576,2.188,1.496,3.802,1.496c1.812,0,2.471-0.92,2.471-1.929
		c0-2.819-6.302-2.99-6.302-6.963c0-2.074,1.413-3.857,4.806-3.857c1.472,0,2.733,0.375,3.227,0.488V8.179z"/>
	<path style="clip-path:url(#SVGID_2_);fill:#FFFFFF;" d="M5.396,1.354H3.822c-2.271,0-2.934,0.719-3.107,2.819H0V0h14.011v4.261
		h-0.716c0-2.217-0.92-2.907-3.136-2.907H8.559v17.877H5.396V1.354z"/>
	<path style="clip-path:url(#SVGID_2_);fill:#FFFFFF;" d="M13.884,9.112c0-2.015-0.462-2.504-2.273-2.561V5.848h5.149v3.481h0.059
		c0.403-1.323,1.295-3.798,3.598-3.798c0.519,0,1.067,0.057,1.555,0.144v2.734c-0.462-0.143-0.979-0.344-1.467-0.344
		c-2.909,0-3.745,2.273-3.745,4.288v6.878h-2.876V9.112z"/>
	<path style="clip-path:url(#SVGID_2_);fill:#FFFFFF;" d="M30.175,11.354c0-3.064,0.009-4.843-1.814-4.843
		c-1.899,0-2.014,1.669-2.014,2.935h-3.424c0.315-1.899,1.264-3.914,5.41-3.914c4.087,0,4.718,2.099,4.718,4.95v8.75h-2.876V17.43
		c-0.548,0.641-1.59,2.137-3.938,2.137c-2.383,0-4.092-1.708-4.092-3.51C22.145,11.75,28.221,11.415,30.175,11.354v1.102
		c-1.1,0.028-4.67,0.179-4.67,3.081c0,1.404,0.699,2.381,1.829,2.381c1.772,0,2.841-1.618,2.841-3.695v-1.767V11.354z"/>
	<path style="clip-path:url(#SVGID_2_);fill:#FFFFFF;" d="M36.145,9.112c0-2.015-0.488-2.504-2.302-2.561V5.848h5.18v3.367h0.057
		c0.432-1.007,1.958-3.684,4.807-3.684c2.62,0,3.481,1.842,3.481,4.058v9.642h-2.878v-7.456c0-2.273,0-4.288-1.927-4.288
		c-1.899,0-3.54,2.678-3.54,4.722v7.022h-2.878V9.112z"/>
	<path style="clip-path:url(#SVGID_2_);fill:#FFFFFF;" d="M57.825,8.179c-0.432-0.289-1.813-1.382-3.424-1.382
		c-0.922,0-2.014,0.346-2.014,1.584c0,2.733,6.301,2.792,6.301,7.194c0,2.821-2.33,3.972-5.178,3.972
		c-1.756,0-3.022-0.345-3.686-0.517v-2.246c0.835,0.576,2.188,1.496,3.8,1.496c1.813,0,2.475-0.92,2.475-1.929
		c0-2.819-6.301-2.99-6.301-6.963c0-2.074,1.408-3.857,4.803-3.857c1.47,0,2.736,0.375,3.224,0.488V8.179z"/>
	<path style="clip-path:url(#SVGID_2_);fill:#FFFFFF;" d="M61.037,3.2c0-0.884,0.73-1.612,1.639-1.612
		c0.88,0,1.662,0.701,1.662,1.612c0,0.91-0.782,1.636-1.689,1.636C61.767,4.836,61.037,4.11,61.037,3.2 M61.253,9.112
		c0-2.015-0.46-2.504-2.215-2.561V5.848h5.095v13.383h-2.88V9.112z"/>
	<path style="clip-path:url(#SVGID_2_);fill:#FFFFFF;" d="M75.601,3.26c0-0.881,0.731-1.61,1.636-1.61
		c0.884,0,1.664,0.703,1.664,1.61c0,0.911-0.78,1.636-1.688,1.636C76.332,4.896,75.601,4.171,75.601,3.26 M75.791,9.112
		c0-2.015-0.463-2.504-2.217-2.561V5.848h5.095v13.383h-2.878V9.112z"/>
	<path style="clip-path:url(#SVGID_2_);fill:#FFFFFF;" d="M73.917,18.357c-0.271,0.046-0.556,0.063-0.82,0.063
		c-2.216,0-2.361-0.891-2.361-2.904v-8.96h2.104V5.848h-2.104V1.799h-2.878v4.049h-2.105v0.708h2.105v9.416
		c0,3.283,1.612,3.489,4.376,3.489c0.554,0,1.125-0.088,1.684-0.188V18.357z"/>
	<path style="clip-path:url(#SVGID_2_);fill:#FFFFFF;" d="M127.276,6.652c0-0.83,0.679-1.509,1.507-1.509
		c0.827,0,1.504,0.679,1.504,1.509c0,0.833-0.677,1.505-1.504,1.505C127.955,8.157,127.276,7.485,127.276,6.652 M128.783,7.934
		c0.705,0,1.281-0.578,1.281-1.282c0-0.707-0.576-1.285-1.281-1.285c-0.704,0-1.286,0.578-1.286,1.285
		C127.497,7.356,128.079,7.934,128.783,7.934 M128.209,5.816h0.534c0.305,0,0.65,0.052,0.65,0.514c0,0.281-0.176,0.34-0.277,0.392
		l0.297,0.686h-0.326l-0.247-0.642h-0.34v0.642h-0.291V5.816z M128.5,6.51h0.346c0.135,0,0.241-0.064,0.241-0.206
		c0-0.14-0.092-0.212-0.265-0.212H128.5V6.51z"/>
</g>
</svg>
