<?xml version="1.0" encoding="iso-8859-1"?>
<!-- Generator: Adobe Illustrator 16.0.0, SVG Export Plug-In . SVG Version: 6.00 Build 0)  -->
<!DOCTYPE svg PUBLIC "-//W3C//DTD SVG 1.1//EN" "http://www.w3.org/Graphics/SVG/1.1/DTD/svg11.dtd">
<svg version="1.1" id="Layer_1" xmlns="http://www.w3.org/2000/svg" xmlns:xlink="http://www.w3.org/1999/xlink" x="0px" y="0px"
	 width="124.771px" height="43.044px" viewBox="0 0 124.771 43.044" style="enable-background:new 0 0 124.771 43.044;"
	 xml:space="preserve">
<g>
	<defs>
		<rect id="SVGID_1_" y="0" width="124.771" height="43.044"/>
	</defs>
	<clipPath id="SVGID_2_">
		<use xlink:href="#SVGID_1_"  style="overflow:visible;"/>
	</clipPath>
	<path style="clip-path:url(#SVGID_2_);fill:#FFFFFF;" d="M96.009,17.827c-1.763,1.54-4.067,2.474-6.59,2.474
		c-5.532,0-10.02-4.483-10.02-10.017c0-3.312,1.607-6.248,4.085-8.072c0.391-0.287-0.375-0.146-1.098,0.304
		c-2.99,1.859-4.981,5.174-4.981,8.953c0,5.823,4.721,10.542,10.542,10.542c2.753,0,5.259-1.057,7.137-2.786
		C95.864,18.506,96.387,17.494,96.009,17.827"/>
	<path style="clip-path:url(#SVGID_2_);fill:#FFFFFF;" d="M91.22,5.517c-5.711,0.076-6.419,5.812-3.42,6.905
		c-0.045-0.097-0.086-0.193-0.118-0.292c-0.596-1.74,0.569-3.883,2.73-3.883c1.728,0,3.414,1.484,2.768,3.794
		c-0.922,3.283-5.269,3.452-7.868,0.661c-0.167-0.179-0.196,0.021-0.159,0.234c0.471,2.669,3.068,4.964,6.067,4.964
		c3.42,0,6.193-2.772,6.193-6.192C97.413,8.289,94.64,5.471,91.22,5.517"/>
	<path style="clip-path:url(#SVGID_2_);fill:#FFFFFF;" d="M92.144,18.587c-0.384,0.062-0.778,0.094-1.179,0.094
		c-4.085,0-7.397-3.31-7.397-7.395c0-4.084,3.313-7.395,7.397-7.395c1.578,0,3.041,0.495,4.241,1.339
		c0.227,0.159-0.134-0.41-0.596-0.803c-1.478-1.26-3.394-2.021-5.488-2.021c-4.679,0-8.473,3.793-8.473,8.472
		c0,4.677,3.794,8.468,8.473,8.468c0.863,0,1.697-0.13,2.481-0.369C92.106,18.822,92.451,18.538,92.144,18.587"/>
	<path style="clip-path:url(#SVGID_2_);fill:#FFFFFF;" d="M99.82,8.725c0-1.928-0.47-2.398-2.205-2.452V5.6h4.961v3.223h0.056
		c0.413-0.965,1.872-3.526,4.602-3.526c2.51,0,3.335,1.762,3.335,3.885v9.234h-2.756v-7.139c0-2.178,0-4.106-1.846-4.106
		c-1.818,0-3.391,2.562-3.391,4.519v6.726H99.82V8.725z"/>
	<path style="clip-path:url(#SVGID_2_);fill:#FFFFFF;" d="M120.393,7.832c-0.414-0.276-1.737-1.323-3.281-1.323
		c-0.881,0-1.928,0.33-1.928,1.517c0,2.617,6.036,2.672,6.036,6.889c0,2.701-2.233,3.803-4.961,3.803
		c-1.682,0-2.896-0.331-3.529-0.496v-2.149c0.799,0.551,2.095,1.433,3.638,1.433c1.735,0,2.371-0.882,2.371-1.847
		c0-2.703-6.037-2.865-6.037-6.669c0-1.985,1.353-3.694,4.603-3.694c1.407,0,2.621,0.358,3.089,0.468V7.832z"/>
	<path style="clip-path:url(#SVGID_2_);fill:#FFFFFF;" d="M5.167,1.295H3.662c-2.179,0-2.812,0.689-2.978,2.701H0V0h13.419V4.08
		h-0.688c0-2.122-0.88-2.784-3.002-2.784h-1.53v17.12H5.167V1.295z"/>
	<path style="clip-path:url(#SVGID_2_);fill:#FFFFFF;" d="M13.296,8.725c0-1.928-0.442-2.398-2.177-2.452V5.6h4.933v3.333h0.055
		c0.387-1.267,1.24-3.636,3.446-3.636c0.496,0,1.02,0.054,1.487,0.136v2.619c-0.44-0.137-0.937-0.331-1.405-0.331
		c-2.784,0-3.583,2.178-3.583,4.107v6.588h-2.756V8.725z"/>
	<path style="clip-path:url(#SVGID_2_);fill:#FFFFFF;" d="M28.898,10.872c0-2.936,0.007-4.639-1.739-4.639
		c-1.818,0-1.927,1.599-1.927,2.811H21.95c0.302-1.82,1.212-3.748,5.181-3.748c3.914,0,4.523,2.013,4.523,4.74v8.38h-2.756V16.69
		c-0.526,0.614-1.522,2.048-3.775,2.048c-2.279,0-3.918-1.638-3.918-3.363C21.205,11.25,27.025,10.93,28.898,10.872v1.052
		c-1.054,0.028-4.476,0.175-4.476,2.953c0,1.344,0.673,2.281,1.755,2.281c1.697,0,2.721-1.549,2.721-3.54v-1.694V10.872z"/>
	<path style="clip-path:url(#SVGID_2_);fill:#FFFFFF;" d="M34.613,8.725c0-1.928-0.468-2.398-2.205-2.452V5.6h4.961v3.223h0.056
		c0.414-0.965,1.873-3.526,4.603-3.526c2.509,0,3.333,1.762,3.333,3.885v9.234h-2.754v-7.139c0-2.178,0-4.106-1.846-4.106
		c-1.82,0-3.392,2.562-3.392,4.519v6.726h-2.756V8.725z"/>
	<path style="clip-path:url(#SVGID_2_);fill:#FFFFFF;" d="M55.376,7.832c-0.415-0.276-1.737-1.323-3.281-1.323
		c-0.881,0-1.928,0.33-1.928,1.517c0,2.617,6.036,2.672,6.036,6.889c0,2.701-2.233,3.803-4.961,3.803
		c-1.681,0-2.893-0.331-3.529-0.496v-2.149c0.799,0.551,2.095,1.433,3.64,1.433c1.735,0,2.37-0.882,2.37-1.847
		c0-2.703-6.036-2.865-6.036-6.669c0-1.985,1.348-3.694,4.6-3.694c1.406,0,2.619,0.358,3.089,0.468V7.832z"/>
	<path style="clip-path:url(#SVGID_2_);fill:#FFFFFF;" d="M58.451,3.061c0-0.845,0.699-1.541,1.568-1.541
		c0.845,0,1.593,0.672,1.593,1.541c0,0.873-0.748,1.569-1.619,1.569C59.15,4.63,58.451,3.934,58.451,3.061 M58.659,8.725
		c0-1.928-0.44-2.398-2.123-2.452V5.6h4.881v12.816h-2.758V8.725z"/>
	<path style="clip-path:url(#SVGID_2_);fill:#FFFFFF;" d="M72.397,3.123c0-0.846,0.697-1.543,1.565-1.543
		c0.849,0,1.594,0.673,1.594,1.543c0,0.869-0.745,1.566-1.614,1.566C73.095,4.689,72.397,3.992,72.397,3.123 M72.578,8.725
		c0-1.928-0.439-2.398-2.123-2.452V5.6h4.881v12.816h-2.758V8.725z"/>
	<path style="clip-path:url(#SVGID_2_);fill:#FFFFFF;" d="M70.787,17.577C70.524,17.623,70.254,17.64,70,17.64
		c-2.122,0-2.26-0.855-2.26-2.785V6.279h2.012v-0.68H67.74V1.722h-2.757v3.877h-2.016v0.68h2.016v9.017
		c0,3.143,1.544,3.339,4.191,3.339c0.528,0,1.077-0.084,1.612-0.176V17.577z"/>
	<path style="clip-path:url(#SVGID_2_);fill:#FFFFFF;" d="M121.883,6.368c0-0.792,0.651-1.443,1.445-1.443
		c0.792,0,1.443,0.651,1.443,1.443c0,0.799-0.651,1.444-1.443,1.444C122.534,7.812,121.883,7.167,121.883,6.368 M123.328,7.597
		c0.676,0,1.228-0.553,1.228-1.229c0-0.676-0.552-1.228-1.228-1.228c-0.678,0-1.23,0.552-1.23,1.228
		C122.098,7.044,122.65,7.597,123.328,7.597 M122.781,5.57h0.508c0.291,0,0.622,0.049,0.622,0.491c0,0.272-0.166,0.325-0.264,0.375
		l0.282,0.657h-0.308l-0.241-0.613h-0.324v0.613h-0.275V5.57z M123.057,6.234h0.333c0.126,0,0.232-0.063,0.232-0.198
		c0-0.134-0.092-0.202-0.259-0.202h-0.307V6.234z"/>
	<path style="clip-path:url(#SVGID_2_);fill:#FFFFFF;" d="M33.353,32.572c2.971,0.648,4.342,1.733,4.342,3.79
		c0,2.303-1.904,3.788-4.551,3.788c-2.114,0-3.846-0.704-5.447-2.133l0.934-1.104c1.39,1.257,2.724,1.885,4.571,1.885
		c1.79,0,2.97-0.932,2.97-2.283c0-1.256-0.667-1.962-3.465-2.554c-3.066-0.666-4.475-1.655-4.475-3.863
		c0-2.135,1.848-3.655,4.378-3.655c1.943,0,3.332,0.551,4.685,1.637l-0.876,1.161c-1.237-1.009-2.475-1.448-3.846-1.448
		c-1.731,0-2.837,0.953-2.837,2.171C29.736,31.239,30.421,31.944,33.353,32.572"/>
	<path style="clip-path:url(#SVGID_2_);fill:#FFFFFF;" d="M40.549,26.344h1.677v1.619h-1.677V26.344z M40.646,30.116h1.466v9.845
		h-1.466V30.116z"/>
	<path style="clip-path:url(#SVGID_2_);fill:#FFFFFF;" d="M49.879,43.044c-1.637,0-3.161-0.457-4.474-1.372l0.665-1.141
		c1.125,0.819,2.381,1.256,3.791,1.256c2.17,0,3.58-1.199,3.58-3.504v-1.161c-0.857,1.144-2.058,2.076-3.867,2.076
		c-2.36,0-4.625-1.753-4.625-4.627c0-2.896,2.284-4.666,4.625-4.666c1.848,0,3.048,0.914,3.847,1.982v-1.772h1.466v8.13
		C54.887,41.425,52.907,43.044,49.879,43.044 M49.861,31.202c-1.866,0-3.409,1.275-3.409,3.332c0,2.017,1.58,3.369,3.409,3.369
		c1.866,0,3.618-1.332,3.618-3.351C53.479,32.515,51.727,31.202,49.861,31.202"/>
	<path style="clip-path:url(#SVGID_2_);fill:#FFFFFF;" d="M59.627,39.96h-1.466v-9.846h1.466v1.715
		c0.646-1.066,1.675-1.924,3.37-1.924c2.38,0,3.77,1.6,3.77,3.941v6.113h-1.466v-5.75c0-1.829-0.991-2.972-2.721-2.972
		c-1.696,0-2.953,1.237-2.953,3.084V39.96z"/>
	<path style="clip-path:url(#SVGID_2_);fill:#FFFFFF;" d="M70.461,32.001l-0.44-1.2c1.088-0.496,2.153-0.818,3.582-0.818
		c2.685,0,4.188,1.371,4.188,3.959v6.019h-1.409v-1.486c-0.688,0.896-1.827,1.696-3.562,1.696c-1.825,0-3.674-1.03-3.674-3.086
		c0-2.095,1.714-3.198,4.208-3.198c1.256,0,2.152,0.172,3.027,0.419v-0.344c0-1.771-1.086-2.685-2.932-2.685
		C72.288,31.277,71.375,31.583,70.461,32.001 M70.632,37.028c0,1.256,1.142,1.98,2.474,1.98c1.811,0,3.295-1.105,3.295-2.666V35.39
		c-0.723-0.21-1.696-0.419-2.893-0.419C71.66,34.971,70.632,35.771,70.632,37.028"/>
	<path style="clip-path:url(#SVGID_2_);fill:#FFFFFF;" d="M82.894,37.161c0,1.2,0.667,1.638,1.655,1.638
		c0.495,0,0.914-0.096,1.428-0.343v1.257c-0.514,0.266-1.064,0.42-1.771,0.42c-1.579,0-2.778-0.782-2.778-2.782v-5.939h-1.371
		v-1.295h1.371v-2.971h1.466v2.971h3.122v1.295h-3.122V37.161z"/>
	<path style="clip-path:url(#SVGID_2_);fill:#FFFFFF;" d="M95.593,30.116h1.447v9.845h-1.447v-1.715
		c-0.667,1.066-1.675,1.924-3.37,1.924c-2.381,0-3.771-1.6-3.771-3.941v-6.112h1.468v5.751c0,1.828,0.991,2.969,2.721,2.969
		c1.678,0,2.953-1.238,2.953-3.083V30.116z"/>
	<path style="clip-path:url(#SVGID_2_);fill:#FFFFFF;" d="M101.799,39.96h-1.466v-9.846h1.466v2.572
		c0.723-1.638,2.151-2.82,4.018-2.743v1.58h-0.114c-2.152,0-3.903,1.543-3.903,4.514V39.96z"/>
	<path style="clip-path:url(#SVGID_2_);fill:#FFFFFF;" d="M111.872,38.914c1.353,0,2.305-0.553,3.104-1.391l0.915,0.818
		c-0.991,1.105-2.189,1.847-4.055,1.847c-2.705,0-4.914-2.075-4.914-5.142c0-2.855,2-5.141,4.722-5.141
		c2.913,0,4.588,2.324,4.588,5.218c0,0.134,0,0.285-0.019,0.456h-7.806C108.616,37.712,110.14,38.914,111.872,38.914
		 M114.746,34.495c-0.15-1.789-1.181-3.35-3.141-3.35c-1.713,0-3.01,1.427-3.198,3.35H114.746z"/>
	<path style="clip-path:url(#SVGID_2_);fill:#FFFFFF;" d="M116.925,31.784h-0.297v-1.8h-0.669v-0.282h1.633v0.282h-0.667V31.784z
		 M119.127,31.317h-0.041l-0.735-1.128v1.595h-0.298v-2.082h0.319l0.743,1.143l0.734-1.143h0.313v2.082h-0.291v-1.595
		L119.127,31.317z"/>
</g>
</svg>
